<?xml version="1.0" standalone="no"?><!DOCTYPE svg PUBLIC "-//W3C//DTD SVG 1.1//EN" "http://www.w3.org/Graphics/SVG/1.1/DTD/svg11.dtd"><svg t="1576060614092" class="icon" viewBox="0 0 1024 1024" version="1.1" xmlns="http://www.w3.org/2000/svg" p-id="2033" xmlns:xlink="http://www.w3.org/1999/xlink" width="200" height="200"><defs><style type="text/css"></style></defs><path d="M874.230791 149.769209a512 512 0 1 0 0 724.461582 512.884029 512.884029 0 0 0 0-724.461582z m-41.402014 683.059568a453.506763 453.506763 0 1 1 0-641.657554 454.317122 454.317122 0 0 1 0 641.657554z" fill="#515151" p-id="2034"></path><path d="M758.791367 482.532374H541.467626V265.208633a29.467626 29.467626 0 0 0-58.935252 0v217.323741H265.208633a29.467626 29.467626 0 0 0 0 58.935252h217.323741V758.791367a29.467626 29.467626 0 0 0 58.935252 0V541.467626H758.791367a29.467626 29.467626 0 0 0 0-58.935252z" fill="#515151" p-id="2035"></path></svg>