<?xml version="1.0" standalone="no"?><!DOCTYPE svg PUBLIC "-//W3C//DTD SVG 1.1//EN" "http://www.w3.org/Graphics/SVG/1.1/DTD/svg11.dtd"><svg t="1575783265389" class="icon" viewBox="0 0 1024 1024" version="1.1" xmlns="http://www.w3.org/2000/svg" p-id="3152" xmlns:xlink="http://www.w3.org/1999/xlink" width="200" height="200"><defs><style type="text/css"></style></defs><path d="M137.09824 453.4016v118.4c0.1024 24.89856 15.80032 46.30016 38.20032 55.30112 25.29792 135.70048 146.80064 223.0016 298.19904 234.90048 6.90176 20.39808 26.90048 35.3024 50.80064 35.3024 29.59872 0 53.60128-22.70208 53.60128-50.69824s-24.00256-50.80064-53.60128-50.80064c-22.70208 0-41.99936 13.39904-49.80224 32.30208-130.80064-10.90048-236.49792-82.80064-262.5024-197.60128 16.19968-3.2 30.19776-12.49792 39.10144-25.29792 22.00064 66.69824 69.80096 122.19904 131.99872 155.49952 0.90112 0.39936 1.69984 0.9984 2.60096 1.39776 0.39936 0.1024 0.70144 0.19968 1.19808 0.19968 0.39936 0 0.79872-0.1024 1.19808-0.19968 0.50176-0.19968 0.9984-0.50176 1.50016-0.70144 1.30048-0.90112 2.29888-2.29888 2.29888-3.99872a4.5568 4.5568 0 0 0-1.39776-3.3024c-0.1024-0.1024-0.19968-0.19968-0.30208-0.19968-61.50144-54.59968-65.30048-108.00128-58.50112-185.90208 5.89824-68.1984 47.0016-132.80256 67.79904-162.00192l1.50016 0.90112a6.77888 6.77888 0 0 1 5.20192-2.60096c3.3024 0 5.80096 2.29888 6.4 5.2992 2.2016 20.1984 6.90176 34.2016 10.19904 41.09824 13.99808 29.59872 36.80256 47.40096 70.2976 53.2992 52.59776 9.29792 104.89856 20.10112 157.50144 29.59872 32.79872 5.89824 60.9024 41.7024 55.3984 78.10048-12.49792 82.80064-70.20032 142.10048-86.20032 153.6 0.90112-0.59904 1.80224-0.9984 2.89792-0.9984 0.9984 0 2.29888 1.1008 3.39968 2.49856 1.60256 2.00192 2.89792 4.39808 3.00032 4.80256 69.00224-29.19936 123.60192-84.70016 150.4-153.40032 11.10016 13.30176 27.8016 21.89824 46.69952 21.89824 33.50016 0 60.60032-26.5984 60.60032-59.40224V463.69792c0-29.19936-21.60128-53.4016-50.00192-58.39872-29.30176-147.2-160.90112-258.49856-319.40096-258.49856-154.30144 0-282.90048 105.4976-316.60032 246.79936-0.50176 0-0.90112-0.1024-1.50016-0.1024-34.3808 0-62.1824 26.8032-62.1824 59.904z m112-35.3024c23.3984-124.8 134.5024-219.40224 268.29824-219.40224 134.4 0 245.89824 95.49824 268.49792 221.19936-2.29888 2.00192-4.59776 4.10112-6.59968 6.4-39.90016-103.10144-141.9008-176.59904-261.80096-176.59904-120.40192 0-222.80192 74.10176-262.2976 177.89952-1.69472-3.39456-3.79392-6.49728-6.09792-9.4976z" fill="#FF7500" p-id="3153"></path><path d="M496.70144 738.2016c-37.09952-4.3008-68.70016-29.50144-80.30208-64.19968a5.2992 5.2992 0 0 1 3.00032-6.5024 5.6832 5.6832 0 0 1 6.99904 2.2016c0.19968 0.30208 14.8992 23.3984 72.40192 30.8992 8.6016 1.1008 16.9984 1.69984 24.89856 1.69984 40.29952 0 58.19904-14.80192 58.39872-14.8992 2.00192-1.80224 5.09952-1.80224 7.19872-0.1024s2.60096 4.70016 0.9984 6.90176c-17.50016 27.60192-48.9984 44.6976-82.0992 44.6976-3.79392 0-7.59808-0.29696-11.4944-0.69632z" fill="#FF7500" p-id="3154"></path></svg>