<?xml version="1.0" standalone="no"?><!DOCTYPE svg PUBLIC "-//W3C//DTD SVG 1.1//EN" "http://www.w3.org/Graphics/SVG/1.1/DTD/svg11.dtd"><svg t="1575782062703" class="icon" viewBox="0 0 1137 1024" version="1.1" xmlns="http://www.w3.org/2000/svg" p-id="5548" xmlns:xlink="http://www.w3.org/1999/xlink" width="222.0703125" height="200"><defs><style type="text/css"></style></defs><path d="M885.93066696 155.30666666a102.4 102.4 0 0 0-102.4-102.4h-409.6a102.4 102.4 0 0 0-102.4 102.4v696.32a102.4 102.4 0 0 0 102.4 102.4h409.6a102.4 102.4 0 0 0 102.4-102.4z m-81.92 538.453333a34.133333 34.133333 0 0 1-34.133334 34.133334H387.75466696a34.133333 34.133333 0 0 1-34.133334-34.133334v-494.933333a34.133333 34.133333 0 0 1 34.133334-34.133333h382.122666a34.133333 34.133333 0 0 1 34.133334 34.133333z" fill="#BBDCFF" p-id="5549"></path><path d="M572.24533296 840.36266666m-66.901333 0a66.901333 66.901333 0 1 0 133.802667 0 66.901333 66.901333 0 1 0-133.802667 0Z" fill="#FFD300" p-id="5550"></path><path d="M778.23999996 42.66666666h-409.6A112.810667 112.810667 0 0 0 255.99999996 155.30666666v696.32A112.810667 112.810667 0 0 0 368.63999996 964.26666666h409.6a112.810667 112.810667 0 0 0 112.64-112.64V155.30666666A112.810667 112.810667 0 0 0 778.23999996 42.66666666zM870.39999996 851.62666666a92.330667 92.330667 0 0 1-92.16 92.16h-409.6a92.330667 92.330667 0 0 1-92.16-92.16V155.30666666a92.16 92.16 0 0 1 92.16-92.16h409.6A92.16 92.16 0 0 1 870.39999996 155.30666666zM764.41599996 155.30666666H382.46399996A44.544 44.544 0 0 0 337.91999996 199.67999966v494.08a44.544 44.544 0 0 0 44.544 44.544h381.952a44.544 44.544 0 0 0 44.544-44.544v-494.933333a44.544 44.544 0 0 0-44.544-43.52z m24.064 538.453333a24.064 24.064 0 0 1-24.064 24.064H382.46399996A24.064 24.064 0 0 1 358.39999996 693.75999966v-494.933333a24.064 24.064 0 0 1 24.064-23.893333h381.952a24.064 24.064 0 0 1 24.064 23.893333z m-215.04 68.266667a77.141333 77.141333 0 1 0 77.141333 77.141333 77.312 77.312 0 0 0-77.141333-75.946666z m0 133.632a56.661333 56.661333 0 1 1 56.661333-56.490667 56.661333 56.661333 0 0 1-56.661333 57.685334z m10.410667-485.546667v61.44h112.469333a10.24 10.24 0 0 1 10.24 10.24 10.24 10.24 0 0 1-10.24 10.24h-112.469333v133.12a10.24 10.24 0 0 1-20.48 0v-133.12H450.55999996a10.24 10.24 0 0 1-10.24-10.24 10.24 10.24 0 0 1 10.24-10.24h112.810667v-61.44H450.55999996a10.24 10.24 0 0 1-10.24-10.24 10.24 10.24 0 0 1 10.24-10.24h112.810667v-17.066666l-119.466667-107.349334a10.274133 10.274133 0 1 1 13.653333-15.36l116.053334 104.106667 115.712-103.936a10.069333 10.069333 0 0 1 14.506666 0 9.898667 9.898667 0 0 1 0 14.336l-119.466666 108.714667v17.066666h112.469333a10.24 10.24 0 0 1 10.24 10.24 10.24 10.24 0 0 1-10.24 10.24z" fill="#3989FF" p-id="5551"></path></svg>