<?xml version="1.0" standalone="no"?><!DOCTYPE svg PUBLIC "-//W3C//DTD SVG 1.1//EN" "http://www.w3.org/Graphics/SVG/1.1/DTD/svg11.dtd"><svg t="1575782622927" class="icon" viewBox="0 0 1024 1024" version="1.1" xmlns="http://www.w3.org/2000/svg" p-id="9495" xmlns:xlink="http://www.w3.org/1999/xlink" width="200" height="200"><defs><style type="text/css"></style></defs><path d="M571.642419 434.873069m-420.567558 0a420.567558 420.567558 0 1 0 841.135116 0 420.567558 420.567558 0 1 0-841.135116 0Z" fill="#E9EAEB" p-id="9496"></path><path d="M7.123855 530.943964L486.560756 52.670289l24.745643 24.803443L31.869498 555.747407zM531.283539 992.918027l161.081493-161.081493 24.781768 24.781768-161.081493 161.081493z" fill="#BCC0C4" p-id="9497"></path><path d="M446.649827 685.291752l22.831017 176.506879-47.612785 21.675016-83.665561-139.370352" fill="#E9EAEB" p-id="9498"></path><path d="M414.859804 905.943414l-91.685317-152.808862 30.056022-18.062514 75.573555 126.004093 21.675016-9.826008-21.241516-163.718619 34.752276-4.551754 24.565018 189.439639-73.695054 33.524025z" fill="#2A5082" p-id="9499"></path><path d="M347.522755 586.164679l-176.57913-22.903266-21.675016 47.685034 139.370352 83.593312" fill="#E9EAEB" p-id="9500"></path><path d="M279.679955 709.56777L126.798843 617.882453l33.596274-73.695054 189.367389 24.565018-4.479503 34.752275-163.71862-21.241516-9.898257 21.675016L297.670218 679.511748l-17.990263 30.056022z" fill="#2A5082" p-id="9501"></path><path d="M751.25605 363.128766l-174.845128 172.027376L687.892754 646.637974l112.926833 212.126155 50.358286-0.867001-99.921823-494.768362z" fill="#A3D4FF" p-id="9502"></path><path d="M790.415579 876.393142L673.659493 657.475482 551.484654 535.011642l210.536654-207.140902 110.470331 547.221901zM601.26494 535.228392l101.150074 101.150074 109.09758 204.90115h18.568264l-89.590066-442.965074z" fill="#2A5082" p-id="9503"></path><path d="M174.845128 181.564383l-0.794751 50.358287 212.053906 112.926833 111.554081 111.554081 172.027376-174.917378L174.845128 181.564383z" fill="#A3D4FF" p-id="9504"></path><path d="M497.730615 481.257602L375.700275 359.155013 156.349115 242.398928l1.3005-82.148311 547.221901 110.470331z m-305.978975-260.10019L396.652791 330.616242l101.150074 101.150074 137.2751-139.225852-443.037324-89.590065z" fill="#2A5082" p-id="9505"></path><path d="M967.066958 65.747548c-27.31052-27.31052-121.741339 22.253016-148.690609 49.852537L377.145276 556.325407c-29.478022 29.478022-158.227616 198.470895-128.749594 227.876667s198.398645-99.127073 227.876667-128.605094L917.575672 214.438157c27.16602-27.31052 76.729556-121.452339 49.491286-148.690609z" fill="#FFFFFF" p-id="9506"></path><path d="M260.750441 806.527341a32.584774 32.584774 0 0 1-24.781768-9.753757c-14.450011-14.450011-20.952515-41.905031 39.954279-135.8301a925.595428 925.595428 0 0 1 88.867565-116.828335l441.158823-441.158824c16.256262-16.256262 49.202286-36.125026 80.125309-49.057786 43.350032-17.773513 75.862556-17.990263 93.347068-0.50575 39.954279 39.954279-21.675016 145.728357-49.563536 173.400127L488.699358 668.023989a926.028928 926.028928 0 0 1-116.828336 88.795315c-58.522543 37.931278-91.251817 49.708036-111.120581 49.708037z m0.578-35.113526c30.056022 3.179002 163.28512-88.939815 202.300149-128.243844L905.076413 202.300148c28.322021-28.322021 63.796797-109.67558 49.563536-123.908841-4.118253-4.118253-22.253016-5.346504-55.34354 8.164256a240.953926 240.953926 0 0 0-68.4208 41.110281L389.572285 568.896917c-39.304029 39.231779-131.567346 172.244126-128.243844 202.516898zM556.058082 766.862062l185.863261-185.856036 24.781769 24.781768-185.863262 185.856036z" fill="#2A5082" p-id="9507"></path></svg>