<?xml version="1.0" standalone="no"?><!DOCTYPE svg PUBLIC "-//W3C//DTD SVG 1.1//EN" "http://www.w3.org/Graphics/SVG/1.1/DTD/svg11.dtd"><svg t="1575783470660" class="icon" viewBox="0 0 1024 1024" version="1.1" xmlns="http://www.w3.org/2000/svg" p-id="5082" xmlns:xlink="http://www.w3.org/1999/xlink" width="200" height="200"><defs><style type="text/css"></style></defs><path d="M512.000512 81.257675c-237.508345 0-430.737208 193.240119-430.737208 430.748465 0 237.507322 193.228863 430.736185 430.737208 430.736185 237.507322 0 430.759721-193.228863 430.759721-430.736185C942.760233 274.497794 749.50681 81.257675 512.000512 81.257675zM512.000512 887.343597c-206.956515 0-375.314944-168.381965-375.314944-375.337457 0-206.955492 168.357406-375.326201 375.314944-375.326201 206.953446 0 375.337457 168.370709 375.337457 375.326201C887.337969 718.961632 718.953957 887.343597 512.000512 887.343597z" p-id="5083" fill="#1296db"></path><path d="M536.491299 287.549042l0-8.931416c0-11.792581-9.622148-21.425985-21.463848-21.425985-11.791557 0-21.415752 9.634428-21.415752 21.425985l0 8.53642C285.247114 301.561174 276.959358 527.527648 276.86112 529.848507c-0.147356 9.94142 6.535857 18.60166 16.232706 21.116947 9.522887 2.296299 19.735483-2.26867 24.323988-10.95347 0.124843-0.245593 12.633738-24.029276 36.71111-24.029276 23.312962 0 33.871435 22.10546 34.292014 22.99369 3.232624 7.226588 10.558473 11.94096 19.934005 12.655228 8.534374-0.147356 16.23066-5.350868 19.48989-13.295817 0.097214-0.223081 9.620102-22.353101 34.044374-22.353101 18.797112 0 28.247344 12.878309 31.723515 19.195178l0 171.530678c0 14.285355-10.80509 25.091468-25.113981 25.091468-6.6607 0-28.420283-2.025123-28.420283-28.420283 0-11.792581-9.620102-21.412682-21.412682-21.412682-11.841699 0-21.463848 9.619078-21.463848 21.412682 0 41.297568 29.999245 71.297836 71.296813 71.297836 38.117133 0 67.992557-29.850865 67.992557-67.967998L536.491299 535.375383c3.699252-6.364965 13.789051-19.392676 33.69952-19.392676 23.485901 0 30.715559 18.651802 31.43085 20.699438 2.76088 8.634658 10.755971 14.58109 20.526499 14.875802 8.806573 0 16.84976-5.600555 20.056801-13.963013 0.815575-2.196015 8.855692-21.61325 32.341592-21.61325 24.472368 0 34.292014 21.51399 34.685987 22.353101 3.801583 9.374508 13.420661 14.901385 24.029276 12.927427 9.993608-2.0241 17.268292-10.856255 17.268292-21.044292 0-75.219145-22.127973-134.9966-65.720817-177.675632C635.222951 304.052924 571.696102 290.927999 536.491299 287.549042zM674.546561 473.081619c-20.47738 0-38.089503 6.709819-52.251038 19.958564-10.31288-9.547447-27.236318-19.958564-52.104705-19.958564-21.017686 0-39.915082 7.327896-54.866608 21.143553-14.530948-13.815657-32.93511-21.143553-53.435003-21.143553-20.723997 0-39.373753 7.40055-54.1769 21.488407-14.975063-14.087856-33.453926-21.488407-53.584406-21.488407-8.979512 0-17.71343 1.456165-26.027793 4.39203 4.54041-17.491373 10.583033-33.9226 18.011212-48.90892 32.686447-65.85794 89.528036-99.237165 168.595836-99.347682 0.122797 0.036839 0.666172 0.110517 1.62808 0.148379 20.204158 0.554632 89.873913 6.118348 138.696876 54.064336 24.597211 24.140817 40.707121 55.977919 48.031946 94.659917C694.208367 474.7844 684.66092 473.081619 674.546561 473.081619z" p-id="5084" fill="#1296db"></path><path d="M510.093069 80.009242c-238.167355 0-431.977455 193.797821-431.977455 431.977455 0 238.217497 193.810101 432.004061 431.977455 432.004061 238.21852 0 432.004061-193.785541 432.004061-432.004061C942.09713 273.807063 748.311589 80.009242 510.093069 80.009242zM510.093069 888.407835c-207.52445 0-376.394533-168.843476-376.394533-376.421138 0-207.538777 168.870082-376.395556 376.394533-376.395556 207.578686 0 376.422162 168.855756 376.422162 376.395556C886.514207 719.564359 717.670731 888.407835 510.093069 888.407835z" p-id="5085" fill="#1296db"></path></svg>