<?xml version="1.0" standalone="no"?><!DOCTYPE svg PUBLIC "-//W3C//DTD SVG 1.1//EN" "http://www.w3.org/Graphics/SVG/1.1/DTD/svg11.dtd"><svg t="1575782766056" class="icon" viewBox="0 0 1024 1024" version="1.1" xmlns="http://www.w3.org/2000/svg" p-id="2301" xmlns:xlink="http://www.w3.org/1999/xlink" width="200" height="200"><defs><style type="text/css"></style></defs><path d="M220.9 235.2h583.2v488.5H220.9zM737.1 139.6H282.8V135c0-27.6 22.4-50 50-50h354.4c27.6 0 50 22.4 50 50l-0.1 4.6z" fill="#EE746C" p-id="2302"></path><path d="M737.2 149.6H282.8c-5.5 0-10-4.5-10-10V135c0-33.1 26.9-60 60-60h354.4c33.1 0 60 26.9 60 60v4.6c0 5.5-4.5 10-10 10z m-444-20h433.7c-2.6-19.5-19.4-34.6-39.6-34.6H332.8c-20.2 0-37 15.1-39.6 34.6z" fill="#5A3392" p-id="2303"></path><path d="M804.1 258v-36.6c0-54.9-44.5-99.4-99.4-99.4H320.3c-54.9 0-99.4 44.5-99.4 99.4v356.7" fill="#EE746C" p-id="2304"></path><path d="M220.9 588.1c-5.5 0-10-4.5-10-10V221.4c0-60.3 49.1-109.4 109.4-109.4h384.4c60.3 0 109.4 49.1 109.4 109.4V258c0 5.5-4.5 10-10 10s-10-4.5-10-10v-36.6c0-49.3-40.1-89.4-89.4-89.4H320.3c-49.3 0-89.4 40.1-89.4 89.4v356.7c0 5.5-4.5 10-10 10z" fill="#5A3392" p-id="2305"></path><path d="M220.9 642v91c0 25.6 20.7 46.3 46.3 46.3h490.6c25.6 0 46.3-20.7 46.3-46.3V322.2" fill="#EE746C" p-id="2306"></path><path d="M757.8 789.3H267.2c-31 0-56.3-25.3-56.3-56.3v-91c0-5.5 4.5-10 10-10s10 4.5 10 10v91c0 20 16.3 36.3 36.3 36.3h490.6c20 0 36.3-16.3 36.3-36.3V322.2c0-5.5 4.5-10 10-10s10 4.5 10 10V733c0 31-25.3 56.3-56.3 56.3z" fill="#5A3392" p-id="2307"></path><path d="M747.1 479.5H277c-5.5 0-10-4.5-10-10V329.2h490.1v140.2c0 5.6-4.5 10.1-10 10.1z" fill="#EE746C" p-id="2308"></path><path d="M719.1 731.2H305c-21 0-38-17-38-38V218.5c0-26.5 21.5-48 48-48h394.1c26.5 0 48 21.5 48 48v474.7c0 21-17 38-38 38z" fill="#FB9761" p-id="2309"></path><path d="M277.1 255.5H748v181.8H277.1z" fill="#E2FBFF" p-id="2310"></path><path d="M748 447.3H277.1c-5.5 0-10-4.5-10-10V255.5c0-5.5 4.5-10 10-10H748c5.5 0 10 4.5 10 10v181.8c0 5.5-4.5 10-10 10z m-460.9-20H738V265.5H287.1v161.8z" fill="#5A3392" p-id="2311"></path><path d="M311.6 625m-40.4 0a40.4 40.4 0 1 0 80.8 0 40.4 40.4 0 1 0-80.8 0Z" fill="#E2FBFF" p-id="2312"></path><path d="M311.6 675.4c-27.8 0-50.4-22.6-50.4-50.4s22.6-50.4 50.4-50.4S362 597.2 362 625s-22.6 50.4-50.4 50.4z m0-80.8c-16.8 0-30.4 13.6-30.4 30.4s13.6 30.4 30.4 30.4S342 641.8 342 625s-13.6-30.4-30.4-30.4z" fill="#5A3392" p-id="2313"></path><path d="M311.6 625m-16.1 0a16.1 16.1 0 1 0 32.2 0 16.1 16.1 0 1 0-32.2 0Z" fill="#FFFFFF" p-id="2314"></path><path d="M422.2 683.2h180.7v96.1H422.2z" fill="#FB9761" p-id="2315"></path><path d="M602.9 789.3H422.2c-5.5 0-10-4.5-10-10v-96.1c0-5.5 4.5-10 10-10h180.7c5.5 0 10 4.5 10 10v96.1c0 5.5-4.5 10-10 10z m-170.7-20h160.7v-76.1H432.2v76.1zM602.9 635H422.2c-5.5 0-10-4.5-10-10s4.5-10 10-10h180.7c5.5 0 10 4.5 10 10s-4.5 10-10 10zM602.9 582H422.2c-5.5 0-10-4.5-10-10s4.5-10 10-10h180.7c5.5 0 10 4.5 10 10s-4.5 10-10 10zM556.5 194.1h-88c-5.5 0-10-4.5-10-10s4.5-10 10-10h88c5.5 0 10 4.5 10 10s-4.5 10-10 10z" fill="#5A3392" p-id="2316"></path><path d="M352 185.3m-9.3 0a9.3 9.3 0 1 0 18.6 0 9.3 9.3 0 1 0-18.6 0Z" fill="#5A3392" p-id="2317"></path><path d="M220.9 610m-9.3 0a9.3 9.3 0 1 0 18.6 0 9.3 9.3 0 1 0-18.6 0Z" fill="#5A3392" p-id="2318"></path><path d="M804.1 290m-9.3 0a9.3 9.3 0 1 0 18.6 0 9.3 9.3 0 1 0-18.6 0Z" fill="#5A3392" p-id="2319"></path><path d="M674.2 185.3m-9.3 0a9.3 9.3 0 1 0 18.6 0 9.3 9.3 0 1 0-18.6 0Z" fill="#5A3392" p-id="2320"></path><path d="M862.7 957.6c-3.2 0-6.4-1.6-8.3-4.5L746.1 790.2H278.9L170.6 953.1c-3.1 4.6-9.3 5.9-13.9 2.8-4.6-3.1-5.9-9.3-2.8-13.9l111.2-167.4c1.9-2.8 5-4.5 8.3-4.5h478c3.3 0 6.5 1.7 8.3 4.5L871 942.1c3.1 4.6 1.8 10.8-2.8 13.9-1.7 1.1-3.6 1.6-5.5 1.6z" fill="#5A3392" p-id="2321"></path><path d="M690.8 850H334.2c-5.5 0-10-4.5-10-10s4.5-10 10-10h356.6c5.5 0 10 4.5 10 10s-4.5 10-10 10zM757.1 906.7H267.9c-5.5 0-10-4.5-10-10s4.5-10 10-10h489.2c5.5 0 10 4.5 10 10s-4.5 10-10 10z" fill="#5A3392" p-id="2322"></path><path d="M287.4 426V266h449.7" fill="#FFFFFF" p-id="2323"></path><path d="M709.8 625m-40.4 0a40.4 40.4 0 1 0 80.8 0 40.4 40.4 0 1 0-80.8 0Z" fill="#E2FBFF" p-id="2324"></path><path d="M709.8 675.4c-27.8 0-50.4-22.6-50.4-50.4s22.6-50.4 50.4-50.4c27.8 0 50.4 22.6 50.4 50.4s-22.6 50.4-50.4 50.4z m0-80.8c-16.8 0-30.4 13.6-30.4 30.4s13.6 30.4 30.4 30.4 30.4-13.6 30.4-30.4-13.6-30.4-30.4-30.4z" fill="#5A3392" p-id="2325"></path><path d="M709.8 625m-16.1 0a16.1 16.1 0 1 0 32.2 0 16.1 16.1 0 1 0-32.2 0Z" fill="#FFFFFF" p-id="2326"></path><path d="M544.7 752.9h-68c-5.5 0-10-4.5-10-10s4.5-10 10-10h68c5.5 0 10 4.5 10 10s-4.5 10-10 10z" fill="#FFFFFF" p-id="2327"></path></svg>