<?xml version="1.0" standalone="no"?><!DOCTYPE svg PUBLIC "-//W3C//DTD SVG 1.1//EN" "http://www.w3.org/Graphics/SVG/1.1/DTD/svg11.dtd"><svg t="1576315061030" class="icon" viewBox="0 0 1024 1024" version="1.1" xmlns="http://www.w3.org/2000/svg" p-id="2079" xmlns:xlink="http://www.w3.org/1999/xlink" width="200" height="200"><defs><style type="text/css"></style></defs><path d="M512.3 250.5c112.2 0 170.4 102.9 196.6 143.9 0-1.5 0.1-3 0.1-4.4 0-92.8 0-233.1-192.4-233.1-186.5 0-192.2 131.8-192.4 224.4 23.2-46.3 74.9-130.8 188.1-130.8zM169.9 753.8c-37.6 25.3-61.7 99.8-69.1 131h390.7L360.9 665c-39.2 15.6-148.8 60.4-191 88.8zM853.3 753.8c-42.1-28.3-151.8-73.2-190.9-88.8L531.7 884.7H924c-2.8-15.3-20-96.8-70.7-130.9z" fill="#FFD524" p-id="2080"></path><path d="M516.5 666.6h0.2c139.5-0.2 228.4-181.7 228.4-276.5 0-87.4 0-269.1-228.4-269.1S288.3 302.8 288.3 390.1c0 58.1 33.8 153.7 96.5 216.3 39.5 39.3 85 60.2 131.7 60.2zM324.3 381.4c0.2-92.6 5.9-224.4 192.4-224.4 192.4 0 192.4 140.3 192.4 233.1 0 1.4-0.1 2.9-0.1 4.4-2.6 85.3-81.1 235.9-192.3 236.1h-0.2c-37.5 0-73.2-16.7-106.2-49.7-55.8-55.7-86-139.9-86-190.8v-8.7z" fill="#6B400D" p-id="2081"></path><path d="M960.1 882c-0.7-4.5-17.7-111.7-86.7-158.2-54.8-36.9-205.8-95.6-212.2-98.1-8.2-3.2-17.5 0-22 7.6L511.6 848 384 633.4c-4.5-7.6-13.8-10.8-22-7.6-6.4 2.5-157.4 61.2-212.2 98.1-59.1 39.8-84 152.3-85.1 157.1-2.1 9.7 4.1 19.3 13.8 21.4 1.3 0.3 2.6 0.4 3.8 0.4 8.3 0 15.8-5.8 17.6-14.2 0.2-1.1 0.6-2.5 0.9-3.8 7.4-31.2 31.5-105.7 69.1-131 42.1-28.3 151.8-73.2 190.9-88.8l130.7 219.8 4.6 7.7c3.3 5.5 9.1 8.8 15.5 8.8s12.2-3.3 15.5-8.8l4.6-7.7L662.3 665c39.2 15.6 148.8 60.5 190.9 88.8 50.7 34.1 67.9 115.6 70.7 131 0.3 1.5 0.5 2.6 0.5 2.7 1.5 9.8 10.8 16.7 20.5 15.1 10-1.5 16.7-10.7 15.2-20.6z" fill="#6B400D" p-id="2082"></path></svg>